<svg xmlns="http://www.w3.org/2000/svg" height="48" viewBox="0 -960 960 960" width="48"><path d="M229.463-191.27q-40.297-42.007-63.495-96.863-23.197-54.855-23.197-112.429 0-66.044 23.615-123.414 23.615-57.369 71.273-104.527 36.265-36.424 91.823-59.037 55.558-22.613 124.789-34.42 69.23-11.808 149.134-13.808 79.903-2 165.902 2.769 6.076 86.076 4.5 166.575-1.577 80.5-13.289 149.942-11.711 69.442-34.903 125.198-23.193 55.755-60.188 92.815-47.279 47.713-103.023 71.706-55.744 23.992-117.198 23.992-62.975 0-117.84-22.134-54.865-22.135-97.903-66.365Zm81.152 5.546q27.308 19.185 62.616 29.051 35.308 9.865 72.122 10.057 51.023.193 100.042-20.929 49.02-21.122 89.489-62.455 24.266-24.664 42.634-65.229 18.369-40.564 30.802-97.809 12.432-57.245 17.402-131.642 4.97-74.397 1.277-167.308-81.604-2.012-153.108 1.719-71.505 3.731-129.544 14.808-58.038 11.077-102.039 29.769-44 18.692-71.039 46.538-42.269 42.693-63.461 91.462-21.192 48.769-21.192 95.653 0 48.158 20.538 100.291 20.539 52.133 54.308 84.133 40.269-88.346 104.172-160.403 63.903-72.057 149.749-122.058-80.422 70.077-130.845 148.975-50.423 78.897-73.923 175.377Zm0 .262Zm0 0Z"/></svg>