<svg width="800" height="800" viewBox="0 0 800 800" fill="none" xmlns="http://www.w3.org/2000/svg">
<path d="M530.257 528.314L546.607 511.178L508.641 470.93L492.295 488.067L530.257 528.314ZM601.512 504L670.089 543.298L695.804 493.436L627.227 454.138L601.512 504ZM683.291 621.401L632.299 674.846L670.261 715.093L721.254 661.649L683.291 621.401ZM601.228 692.054C549.184 697.166 414.536 692.611 268.751 539.809L230.788 580.057C389.876 746.801 541.291 754.944 606.225 748.564L601.228 692.054ZM268.751 539.809C129.789 394.159 106.77 271.656 103.904 218.51L50.1489 221.73C53.7549 288.62 82.2579 424.379 230.788 580.057L268.751 539.809ZM318.118 305.965L328.413 295.174L290.451 254.928L280.156 265.718L318.118 305.965ZM336.608 157.628L291.346 93.8953L248.244 127.909L293.505 191.642L336.608 157.628ZM139.115 80.0235L82.7748 139.076L120.739 179.322L177.079 120.27L139.115 80.0235ZM299.137 285.842C280.156 265.718 280.13 265.745 280.104 265.772C280.095 265.781 280.069 265.809 280.052 265.828C280.017 265.865 279.981 265.903 279.945 265.942C279.872 266.02 279.796 266.102 279.719 266.186C279.563 266.356 279.399 266.54 279.226 266.738C278.88 267.134 278.499 267.588 278.092 268.1C277.279 269.123 276.356 270.384 275.387 271.891C273.444 274.914 271.327 278.911 269.531 283.937C265.865 294.193 263.9 307.713 266.363 324.454C271.182 357.193 292.572 400.44 347.365 457.869L385.328 417.622C334.052 363.878 321.837 331.171 319.569 315.753C318.488 308.415 319.608 304.803 319.917 303.948C320.103 303.419 320.193 303.365 319.963 303.726C319.848 303.903 319.658 304.18 319.36 304.552C319.213 304.739 319.037 304.95 318.833 305.185C318.729 305.303 318.621 305.427 318.499 305.557C318.441 305.622 318.38 305.688 318.316 305.756C318.283 305.79 318.251 305.824 318.219 305.859C318.205 305.877 318.179 305.903 318.169 305.912C318.143 305.938 318.118 305.965 299.137 285.842ZM347.365 457.869C402.177 515.317 443.395 537.675 474.505 542.708C490.403 545.277 503.221 543.226 512.945 539.408C517.712 537.535 521.509 535.329 524.381 533.301C525.817 532.287 527.016 531.322 527.988 530.471C528.477 530.047 528.907 529.65 529.284 529.287C529.474 529.105 529.65 528.935 529.812 528.772C529.894 528.689 529.97 528.609 530.045 528.534C530.081 528.496 530.117 528.458 530.153 528.42C530.171 528.401 530.2 528.375 530.207 528.367C530.232 528.341 530.257 528.314 511.276 508.189C492.295 488.067 492.32 488.04 492.345 488.014C492.352 488.006 492.377 487.98 492.395 487.961C492.427 487.927 492.46 487.893 492.492 487.859C492.56 487.794 492.621 487.73 492.682 487.666C492.808 487.541 492.926 487.427 493.038 487.318C493.26 487.106 493.461 486.92 493.641 486.769C493.992 486.459 494.254 486.262 494.416 486.145C494.75 485.91 494.682 486.016 494.15 486.224C493.271 486.569 489.75 487.753 482.671 486.606C467.836 484.211 436.589 471.347 385.328 417.622L347.365 457.869ZM291.346 93.8953C254.758 42.3767 182.811 34.2247 139.115 80.0235L177.079 120.27C196.164 100.267 230.059 102.303 248.244 127.909L291.346 93.8953ZM103.904 218.51C103.198 205.414 108.896 191.734 120.739 179.322L82.7748 139.076C63.4878 159.291 48.3251 187.907 50.1489 221.73L103.904 218.51ZM632.299 674.846C622.435 685.187 611.86 691.01 601.228 692.054L606.225 748.564C632.593 745.972 654.198 731.931 670.261 715.093L632.299 674.846ZM328.413 295.174C363.751 258.135 366.379 199.548 336.608 157.628L293.505 191.642C307.989 212.035 305.835 238.803 290.451 254.928L328.413 295.174ZM670.089 543.298C699.444 560.12 704.017 599.675 683.291 621.401L721.254 661.649C769.363 611.223 754.528 527.085 695.804 493.436L670.089 543.298ZM546.607 511.178C560.391 496.732 582.577 493.152 601.512 504L627.227 454.138C588.331 431.849 540.06 438.005 508.641 470.93L546.607 511.178Z" fill="white"/>
</svg>
