<?xml version="1.0" standalone="no"?>
<!DOCTYPE svg PUBLIC "-//W3C//DTD SVG 20010904//EN"
 "http://www.w3.org/TR/2001/REC-SVG-20010904/DTD/svg10.dtd">
<svg version="1.0" xmlns="http://www.w3.org/2000/svg"
 width="512.000000pt" height="512.000000pt" viewBox="0 0 512.000000 512.000000"
 preserveAspectRatio="xMidYMid meet">

<g transform="translate(0.000000,512.000000) scale(0.100000,-0.100000)"
fill="white" stroke="none">
<path d="M655 5109 c-243 -41 -460 -202 -570 -424 -88 -179 -80 25 -80 -2125
0 -2150 -8 -1946 80 -2125 76 -153 198 -275 350 -350 179 -88 -25 -80 2125
-80 2150 0 1946 -8 2125 80 153 76 275 198 350 350 88 179 80 -25 80 2125 0
2150 8 1946 -80 2125 -76 153 -197 274 -350 350 -178 87 29 79 -2095 81 -1037
1 -1907 -2 -1935 -7z m2083 -890 c212 -23 362 -68 567 -169 621 -307 989 -979
914 -1668 -59 -550 -400 -1049 -889 -1301 -488 -252 -1043 -253 -1530 -4 -317
162 -573 421 -730 738 -101 205 -146 356 -169 567 -67 602 206 1199 709 1550
106 74 315 177 440 217 222 71 460 95 688 70z"/>
<path d="M2486 3959 c-127 -68 -256 -302 -331 -603 -18 -72 -35 -146 -38 -163
l-6 -33 449 0 450 0 -7 33 c-33 182 -112 421 -179 545 -110 202 -227 279 -338
221z"/>
<path d="M2015 3881 c-226 -94 -459 -274 -595 -460 -57 -77 -150 -232 -150
-248 0 -10 65 -13 299 -13 l299 0 7 46 c13 87 73 319 109 416 19 53 58 142 85
198 28 55 47 100 43 99 -4 0 -48 -17 -97 -38z"/>
<path d="M3051 3820 c27 -56 66 -145 85 -198 36 -97 96 -329 109 -416 l7 -46
299 0 c234 0 299 3 299 13 0 16 -93 171 -150 249 -98 134 -259 276 -422 373
-63 38 -255 125 -274 125 -2 0 19 -45 47 -100z"/>
<path d="M1166 2883 c-23 -125 -36 -240 -36 -323 0 -83 13 -198 36 -322 l7
-38 333 0 334 0 -7 28 c-10 35 -10 629 0 665 l7 27 -334 0 -333 0 -7 -37z"/>
<path d="M2073 2883 c-10 -49 -10 -597 0 -645 l8 -38 479 0 479 0 8 38 c10 48
10 596 0 645 l-8 37 -479 0 -479 0 -8 -37z"/>
<path d="M3287 2893 c10 -36 10 -630 0 -665 l-7 -28 333 0 334 0 19 103 c13
72 19 147 19 257 0 110 -6 185 -19 258 l-19 102 -334 0 -333 0 7 -27z"/>
<path d="M1270 1947 c0 -16 93 -171 150 -249 137 -187 398 -385 615 -467 27
-11 58 -22 68 -26 14 -6 5 17 -33 94 -28 56 -67 146 -86 199 -36 97 -96 329
-109 416 l-7 46 -299 0 c-234 0 -299 -3 -299 -13z"/>
<path d="M2115 1938 c97 -446 218 -698 374 -778 51 -25 91 -25 142 0 156 80
277 332 374 778 l5 22 -450 0 -450 0 5 -22z"/>
<path d="M3245 1913 c-11 -79 -81 -342 -114 -431 -17 -46 -54 -128 -81 -183
-27 -54 -49 -99 -47 -99 1 0 26 9 55 20 276 105 522 299 681 535 58 86 111
179 111 194 0 8 -84 11 -299 11 l-299 0 -7 -47z"/>
</g>
</svg>
